# xmcd CD database file
#
# Track frame offsets:
#	150
#	8330
#	15482
#	30952
#	39995
#	55985
#	66372
#	73752
#	86820
#	101980
#	111887
#	119150
#	132715
#	137055
#	149212
#	154127
#	164255
#	181557
#	189860
#	209190
#	212462
#	227510
#	235935
#	247652
#	251500
#	260810
#	267767
#	275642
#	289600
#	299737
#	309247
#	315927
#	329397
#
# Disc length: 4476 seconds
#
# Revision: 4
# Processed by: cddbd v1.5.2PL0 Copyright (c) Steve Scherf et al.
# Submitted via: CDex 1.70beta2
#
DISCID=ec117a21
DTITLE=Frank Sinatra - Frank Sinatra in Hollywood (1940-1964) - Disc 2
DYEAR=1900
DGENRE=Jazz
TTITLE0=We Hate To Leave (Feat. Gene Kelly and Chorus)
TTITLE1=The Cradle Song (Brahms' Lullaby)
TTITLE2=I Begged Her (Feat. Gene Kelly)
TTITLE3=If You Knew Susie Like I Know Susie (Feat. Gene Kelly)
TTITLE4=What Makes The Sunset?
TTITLE5=The Charm Of You
TTITLE6=I Fall In Love Too Easily
TTITLE7=Acceptance Speech For Receiving Honorary Academy Award
TTITLE8=The House I Live In (That's America To Me)
TTITLE9=If You Are But A Dream
TTITLE10=All Or Nothing At All
TTITLE11=Ol' Man River
TTITLE12=Whose Baby Are You (Feat. Andre Previn)
TTITLE13=The Brooklyn Bridge
TTITLE14=The Brooklyn Bridge (Alternate Ending - Outtake)
TTITLE15=Invention #1 (Feat. Kathryn Grayson and School Children)
TTITLE16=I Believe (Feat. Jimmy Durante and Bobby Long)
TTITLE17=Time After Time
TTITLE18=The Song's Gotta Come From The Heart (Feat. Andre Previn)
TTITLE19=Otchi-Tchor-Ni-Ya (Outtake)
TTITLE20=La Ci Darem La Mano (Feat. Kathryn Grayson And Andre Previn
TTITLE21=It's The Same Old Dream (Feat. The Starlighters And Andre Previn)
TTITLE22=It's The Same Old Dream (Reprise) (Feat. The Starlighters And Andre Previn)
TTITLE23=Finale: The Brooklyn Bridge
TTITLE24=Presentation Of Modern Screen Magazine's Award For 'Most Popular Film Star Of 1946' [With Louis B. Mayer]
TTITLE25=Ever Homeward (A Cappella)
TTITLE26=Promotional Spot For 'The Chapel Of Four Chaplains' and 'The Miracle Of The Bells'
TTITLE27=If I Steal A Kiss
TTITLE28=Senorita (Feat. Kathryn Grayson and Chorus
TTITLE29=Siesta
TTITLE30=What's Wrong With Me (Feat. Kathryn Grayson)
TTITLE31=We're On Our Way(Outtake) (Feat. J. Carrol Naish)
TTITLE32=Finale: If I Steal A Kiss (Feat. Kathryn Grayson)
EXTD=
EXTT0=
EXTT1=
EXTT2=
EXTT3=
EXTT4=
EXTT5=
EXTT6=
EXTT7=
EXTT8=
EXTT9=
EXTT10=
EXTT11=
EXTT12=
EXTT13=
EXTT14=
EXTT15=
EXTT16=
EXTT17=
EXTT18=
EXTT19=
EXTT20=
EXTT21=
EXTT22=
EXTT23=
EXTT24=
EXTT25=
EXTT26=
EXTT27=
EXTT28=
EXTT29=
EXTT30=
EXTT31=
EXTT32=
PLAYORDER=
